<svg id="Calque_1" data-name="Calque 1" xmlns="http://www.w3.org/2000/svg" viewBox="0 0 128 128"><defs><style>.cls-1{fill:#38a3a5;}</style></defs><title>Logo blue2</title><path class="cls-1" d="M73.39,68.92c-6.13,0-12.42.64-19.2.64-6.3,0-10-2.9-10-6,0-3.24,4.88-6.49,8.84-8a.73.73,0,0,1,.46,0,36.79,36.79,0,0,0,4.78.78c.11,0,2.2,0,2.2,0,11.19-.77,24.86-8.74,24.86-24.84a19.92,19.92,0,0,0-1.46-7.22h0c-.12-.27-.24-.53-.37-.78a20.32,20.32,0,0,0-3.2-5.16,38.19,38.19,0,0,0-4.89-5,19.86,19.86,0,0,0-3-2.44,5.17,5.17,0,1,0-2,4.13,12.11,12.11,0,0,1,1.72,1.51,17.21,17.21,0,0,1,2,2.6,33.13,33.13,0,0,1,2.5,13.73c0,13.72-7.21,19-14.47,19-.71,0-1.54.09-2.57.09-.4,0-1.17,0-1.84,0-7.26,0-15.23-5.33-15.23-19a33.13,33.13,0,0,1,2.5-13.73,17.21,17.21,0,0,1,2-2.6A12.14,12.14,0,0,1,48.86,15a5.08,5.08,0,0,0,3.46,1.1,5.17,5.17,0,1,0-5.44-5.23,19.42,19.42,0,0,0-3,2.44,38.68,38.68,0,0,0-4.9,5,20.32,20.32,0,0,0-3.2,5.16c-.12.25-.25.51-.37.78h0A20.13,20.13,0,0,0,34,31.49C34,42,39.85,49.1,47,53l-.13,0,.63.28,1.11.54a.24.24,0,0,1-.06.28,23,23,0,0,1-6.69,4.52c-1.93,1-4.4,2.65-4.76,4.77A9.23,9.23,0,0,0,37.32,67c.62,1.72,3.5,4.27,7.07,5.67,5.17,2,16.18,2,19.75,2,8.88,0,14.37.16,18.89,2.75a13.33,13.33,0,0,1,6.78,11.94c0,11.3-8.4,21.31-26.63,21.31a29.83,29.83,0,0,1-3.32-.18.28.28,0,0,0-.25.12,2.53,2.53,0,0,1-.13.22,11.35,11.35,0,1,0-2.37,7h.14C78.4,117.82,96,101.68,96,87,96,72.15,84.53,68.92,73.39,68.92Zm-18.13,42.9A1.14,1.14,0,0,1,54.12,113H51.36a1.14,1.14,0,0,0-1.14,1.14v2.76A1.14,1.14,0,0,1,49.08,118H47.2a1.14,1.14,0,0,1-1.14-1.14V114.1A1.14,1.14,0,0,0,44.92,113H42.15A1.14,1.14,0,0,1,41,111.82v-1.88a1.14,1.14,0,0,1,1.14-1.14h2.77a1.14,1.14,0,0,0,1.14-1.14V104.9a1.14,1.14,0,0,1,1.14-1.14h1.88a1.14,1.14,0,0,1,1.14,1.14v2.76a1.14,1.14,0,0,0,1.14,1.14h2.76a1.14,1.14,0,0,1,1.14,1.14Z"/></svg>