<svg id="Calque_1" data-name="Calque 1" xmlns="http://www.w3.org/2000/svg" viewBox="0 0 128 136.29"><defs><style>.cls-1{fill:#22577a;}</style></defs><title>logo blue</title><path class="cls-1" d="M79.25,73.06c-6.13,0-12.42.65-19.2.65-6.3,0-10-2.91-10-6,0-3.24,4.88-6.48,8.83-8a.76.76,0,0,1,.47,0,35,35,0,0,0,4.78.78c.1,0,2.2,0,2.2,0,11.19-.76,24.86-8.74,24.86-24.84a20.18,20.18,0,0,0-1.46-7.22h0c-.12-.27-.24-.53-.37-.78a20.32,20.32,0,0,0-3.2-5.16,38.19,38.19,0,0,0-4.89-5,20.27,20.27,0,0,0-3-2.43,5.17,5.17,0,1,0-5.17,5.23,5.11,5.11,0,0,0,3.19-1.1,10.94,10.94,0,0,1,1.73,1.5,17.21,17.21,0,0,1,2,2.6A33.15,33.15,0,0,1,82.58,37c0,13.72-7.21,19-14.47,19-.71,0-1.54.09-2.57.09-.4,0-1.17,0-1.84,0-7.27,0-15.23-5.33-15.23-19A33.15,33.15,0,0,1,51,23.25a17.21,17.21,0,0,1,2-2.6,10.94,10.94,0,0,1,1.73-1.5,5.16,5.16,0,1,0-2-4.13,20.27,20.27,0,0,0-3,2.43,38.19,38.19,0,0,0-4.89,5,20.32,20.32,0,0,0-3.2,5.16c-.13.25-.25.51-.37.78h0a20.18,20.18,0,0,0-1.46,7.22c0,10.51,5.84,17.61,13,21.48l-.13,0,.63.28c.36.19.74.37,1.11.55a.27.27,0,0,1-.06.28,23,23,0,0,1-6.69,4.51c-1.93,1-4.4,2.65-4.76,4.78a9.23,9.23,0,0,0,.21,3.61c.62,1.71,3.5,4.26,7.07,5.66,5.17,2,16.18,2,19.75,2,8.88,0,14.37.16,18.89,2.74a13.33,13.33,0,0,1,6.78,11.94c0,11.3-8.4,21.31-26.64,21.31a32.44,32.44,0,0,1-3.31-.17.27.27,0,0,0-.25.11l-.13.22A11.35,11.35,0,1,0,63,122h.14c21.15,0,38.74-16.14,38.74-30.83C101.85,76.29,90.39,73.06,79.25,73.06ZM61.12,116A1.14,1.14,0,0,1,60,117.1H57.21a1.15,1.15,0,0,0-1.14,1.14V121a1.14,1.14,0,0,1-1.14,1.14H53.06A1.14,1.14,0,0,1,51.92,121v-2.77a1.14,1.14,0,0,0-1.14-1.14H48A1.14,1.14,0,0,1,46.87,116v-1.87A1.14,1.14,0,0,1,48,113h2.77a1.14,1.14,0,0,0,1.14-1.14V109a1.14,1.14,0,0,1,1.14-1.14h1.87A1.14,1.14,0,0,1,56.07,109v2.77A1.15,1.15,0,0,0,57.21,113H60a1.14,1.14,0,0,1,1.14,1.14Z"/></svg>