<svg xmlns="http://www.w3.org/2000/svg" width="28" height="24" fill="none" viewBox="0 0 28 24">
  <path stroke="#494949" stroke-linecap="round" stroke-linejoin="round" stroke-width="2" d="M24.5 16V8c0-.35-.108-.695-.313-.999a2.198 2.198 0 00-.854-.731l-8.166-4A2.64 2.64 0 0014 2.002c-.41 0-.812.092-1.167.268l-8.166 4a2.198 2.198 0 00-.854.731A1.786 1.786 0 003.5 8v8c0 .35.108.695.313.999.205.303.5.556.854.731l8.166 4c.355.176.757.268 1.167.268.41 0 .812-.092 1.167-.268l8.166-4c.355-.175.649-.428.854-.731.205-.304.313-.648.313-.999z"/>
  <path stroke="#494949" stroke-linecap="round" stroke-linejoin="round" stroke-width="2" d="M3.815 6.96L14 12.01l10.185-5.05M14 22.08V12"/>
</svg>
