<svg xmlns="http://www.w3.org/2000/svg" width="754" height="439" fill="none" viewBox="0 0 754 439">
  <rect width="752.587" height="437.923" x=".839" y=".159" fill="#fff" rx="20"/>
  <path stroke="#D3D3D3" stroke-linecap="round" stroke-width="3" d="M82.075 165.192h616.412M82.075 258.202h616.412M82.075 77.406h616.412"/>
  <path fill="#ACACAC" d="M132.351 391.826c-1.104 0-2.096-.192-2.976-.576-.864-.4-1.544-.944-2.04-1.632-.496-.704-.752-1.512-.768-2.424h2.328c.08.784.4 1.448.96 1.992.576.528 1.408.792 2.496.792 1.04 0 1.856-.256 2.448-.768.608-.528.912-1.2.912-2.016 0-.64-.176-1.16-.528-1.56a3.373 3.373 0 00-1.32-.912c-.528-.208-1.24-.432-2.136-.672-1.104-.288-1.992-.576-2.664-.864a4.424 4.424 0 01-1.704-1.344c-.464-.624-.696-1.456-.696-2.496 0-.912.232-1.72.696-2.424.464-.704 1.112-1.248 1.944-1.632.848-.384 1.816-.576 2.904-.576 1.568 0 2.848.392 3.84 1.176 1.008.784 1.576 1.824 1.704 3.12h-2.4c-.08-.64-.416-1.2-1.008-1.68-.592-.496-1.376-.744-2.352-.744-.912 0-1.656.24-2.232.72-.576.464-.864 1.12-.864 1.968 0 .608.168 1.104.504 1.488.352.384.776.68 1.272.888.512.192 1.224.416 2.136.672 1.104.304 1.992.608 2.664.912.672.288 1.248.744 1.728 1.368.48.608.72 1.44.72 2.496 0 .816-.216 1.584-.648 2.304-.432.72-1.072 1.304-1.92 1.752-.848.448-1.848.672-3 .672zM229.015 375.05v16.608h-2.184v-12.384l-5.52 12.384h-1.536l-5.544-12.408v12.408h-2.184V375.05h2.352l6.144 13.728 6.144-13.728h2.328zM313.343 374.93v1.776h-4.56v14.952h-2.184v-14.952h-4.584v-1.776h11.328zM407.071 374.93l-4.848 16.728h-2.448l-3.888-13.464-4.032 13.464-2.424.024-4.68-16.752h2.328l3.648 14.184 4.032-14.184h2.448l3.84 14.136 3.672-14.136h2.352zM490.343 374.93v1.776h-4.56v14.952h-2.184v-14.952h-4.584v-1.776h11.328zM572.503 374.93v1.776h-7.272v5.64h5.904v1.776h-5.904v7.536h-2.184V374.93h9.456zM651.351 391.826c-1.104 0-2.096-.192-2.976-.576-.864-.4-1.544-.944-2.04-1.632-.496-.704-.752-1.512-.768-2.424h2.328c.08.784.4 1.448.96 1.992.576.528 1.408.792 2.496.792 1.04 0 1.856-.256 2.448-.768.608-.528.912-1.2.912-2.016 0-.64-.176-1.16-.528-1.56a3.373 3.373 0 00-1.32-.912c-.528-.208-1.24-.432-2.136-.672-1.104-.288-1.992-.576-2.664-.864a4.424 4.424 0 01-1.704-1.344c-.464-.624-.696-1.456-.696-2.496 0-.912.232-1.72.696-2.424.464-.704 1.112-1.248 1.944-1.632.848-.384 1.816-.576 2.904-.576 1.568 0 2.848.392 3.84 1.176 1.008.784 1.576 1.824 1.704 3.12h-2.4c-.08-.64-.416-1.2-1.008-1.68-.592-.496-1.376-.744-2.352-.744-.912 0-1.656.24-2.232.72-.576.464-.864 1.12-.864 1.968 0 .608.168 1.104.504 1.488.352.384.776.68 1.272.888.512.192 1.224.416 2.136.672 1.104.304 1.992.608 2.664.912.672.288 1.248.744 1.728 1.368.48.608.72 1.44.72 2.496 0 .816-.216 1.584-.648 2.304-.432.72-1.072 1.304-1.92 1.752-.848.448-1.848.672-3 .672z"/>
  <rect width="29.184" height="235.075" x="118.107" y="101.583" fill="#38A3A5" rx="14.592"/>
  <rect width="29.184" height="145.578" x="204.607" y="191.08" fill="#22577A" rx="14.592"/>
  <rect width="29.184" height="196.504" x="291.107" y="140.154" fill="#38A3A5" rx="14.592"/>
  <rect width="29.184" height="126.122" x="377.607" y="210.536" fill="#22577A" rx="14.592"/>
  <rect width="29.184" height="222.429" x="464.107" y="114.229" fill="#38A3A5" rx="14.592"/>
  <rect width="29.184" height="78.456" x="550.607" y="258.202" fill="#22577A" rx="14.592"/>
  <rect width="29.184" height="145.578" x="637.107" y="191.08" fill="#38A3A5" rx="14.592"/>
  <path fill="#ACACAC" d="M45.489 250.746h-8.424v5.472c.367-.512.912-.928 1.632-1.248a5.437 5.437 0 012.328-.504c1.328 0 2.407.28 3.24.84.831.544 1.423 1.256 1.776 2.136a6.97 6.97 0 01.552 2.76c0 1.152-.217 2.184-.649 3.096a4.898 4.898 0 01-1.992 2.16c-.88.528-1.975.792-3.288.792-1.68 0-3.04-.432-4.08-1.296-1.04-.864-1.672-2.016-1.896-3.456h2.136c.209.912.648 1.624 1.32 2.136s1.52.768 2.544.768c1.264 0 2.216-.376 2.856-1.128.64-.768.96-1.776.96-3.024s-.32-2.208-.96-2.88c-.64-.688-1.583-1.032-2.831-1.032-.849 0-1.593.208-2.233.624-.623.4-1.08.952-1.367 1.656h-2.065v-9.792h10.44v1.92zM30.349 157.832v-1.992h4.512v17.352h-2.208v-15.36h-2.304zm8.263 6.504c0-2.752.448-4.896 1.344-6.432.896-1.552 2.464-2.328 4.704-2.328 2.224 0 3.784.776 4.68 2.328.896 1.536 1.344 3.68 1.344 6.432 0 2.8-.448 4.976-1.344 6.528-.896 1.552-2.456 2.328-4.68 2.328-2.24 0-3.808-.776-4.704-2.328-.896-1.552-1.344-3.728-1.344-6.528zm9.912 0c0-1.392-.096-2.568-.288-3.528-.176-.976-.552-1.76-1.128-2.352-.56-.592-1.376-.888-2.448-.888-1.088 0-1.92.296-2.496.888-.56.592-.936 1.376-1.128 2.352-.176.96-.264 2.136-.264 3.528 0 1.44.088 2.648.264 3.624.192.976.568 1.76 1.128 2.352.576.592 1.408.888 2.496.888 1.072 0 1.888-.296 2.448-.888.576-.592.952-1.376 1.128-2.352.192-.976.288-2.184.288-3.624zM30.349 67.64v-1.992h4.512V83h-2.208V67.64h-2.304zm19.327-.096h-8.424v5.472c.368-.512.912-.928 1.632-1.248a5.437 5.437 0 012.328-.504c1.328 0 2.408.28 3.24.84.832.544 1.424 1.256 1.776 2.136A6.97 6.97 0 0150.78 77c0 1.152-.216 2.184-.648 3.096a4.898 4.898 0 01-1.992 2.16c-.88.528-1.976.792-3.288.792-1.68 0-3.04-.432-4.08-1.296-1.04-.864-1.672-2.016-1.896-3.456h2.136c.208.912.648 1.624 1.32 2.136s1.52.768 2.544.768c1.264 0 2.216-.376 2.856-1.128.64-.768.96-1.776.96-3.024s-.32-2.208-.96-2.88c-.64-.688-1.584-1.032-2.832-1.032-.848 0-1.592.208-2.232.624-.624.4-1.08.952-1.368 1.656h-2.064v-9.792h10.44v1.92z"/>
</svg>
