<svg xmlns="http://www.w3.org/2000/svg" width="464" height="306" fill="none" viewBox="0 0 464 306">
  <rect width="462.821" height="304.938" x=".523" y=".512" fill="#fff" rx="15"/>
  <rect width="366.703" height="13.549" x="54.377" y="37.687" fill="#F5F5F5" rx="6.774"/>
  <rect width="289.407" height="13.549" x="54.377" y="37.687" fill="#80ED99" rx="6.774"/>
  <rect width="366.703" height="13.549" x="54.377" y="117.699" fill="#F5F5F5" rx="6.774"/>
  <rect width="301.334" height="13.549" x="54.377" y="117.699" fill="#22577A" rx="6.774"/>
  <rect width="366.703" height="13.549" x="54.35" y="224.38" fill="#F5F5F5" rx="6.774"/>
  <rect width="182.127" height="13.549" x="54.35" y="224.38" fill="#22577A" rx="6.774"/>
  <rect width="366.703" height="13.549" x="54.377" y="197.71" fill="#F5F5F5" rx="6.774"/>
  <rect width="256.118" height="13.549" x="54.377" y="197.71" fill="#80ED99" rx="6.774"/>
  <rect width="366.703" height="13.549" x="54.377" y="64.357" fill="#F5F5F5" rx="6.774"/>
  <rect width="328.759" height="13.549" x="54.377" y="64.357" fill="#22577A" rx="6.774"/>
  <rect width="366.703" height="13.549" x="54.377" y="144.369" fill="#F5F5F5" rx="6.774"/>
  <rect width="277.899" height="13.549" x="54.377" y="144.369" fill="#80ED99" rx="6.774"/>
  <rect width="366.703" height="13.549" x="54.35" y="251.051" fill="#F5F5F5" rx="6.774"/>
  <rect width="277.899" height="13.549" x="54.35" y="251.051" fill="#80ED99" rx="6.774"/>
  <rect width="366.703" height="13.549" x="54.377" y="91.028" fill="#F5F5F5" rx="6.774"/>
  <rect width="206.096" height="13.549" x="54.377" y="91.028" fill="#80ED99" rx="6.774"/>
  <rect width="366.703" height="13.549" x="54.377" y="171.04" fill="#F5F5F5" rx="6.774"/>
  <rect width="289.407" height="13.549" x="54.377" y="171.04" fill="#22577A" rx="6.774"/>
  <path fill="#000" d="M35.815 39.175v7.406c0 .747-.229 1.349-.686 1.806-.457.448-1.069.672-1.834.672-.793 0-1.428-.238-1.904-.714-.467-.485-.7-1.138-.7-1.96h.994c.01.532.14.966.392 1.302.261.336.667.504 1.218.504.523 0 .91-.154 1.162-.462.252-.308.378-.69.378-1.148v-7.406h.98zM36.585 65.846v.812h-4.312v3.654h3.64v.812h-3.64v4.508h-.98v-9.786h5.292zM40.868 92.642v9.66h-.98v-7.714l-3.444 7.714h-.714l-3.444-7.686v7.686h-.98v-9.66h1.036l3.738 8.372 3.738-8.372h1.05zM36.989 126.649h-4.452l-.854 2.324h-1.036l3.57-9.66h1.106l3.556 9.66h-1.036l-.854-2.324zm-.294-.812l-1.932-5.292-1.932 5.292h3.864zM36.963 233.331h-4.452l-.854 2.324h-1.036l3.57-9.66h1.106l3.556 9.66h-1.036l-.854-2.324zm-.294-.812l-1.932-5.292-1.932 5.292h3.864zM40.881 145.983v9.66h-.98v-7.714l-3.444 7.714h-.714l-3.444-7.686v7.686h-.98v-9.66h1.036l3.738 8.372 3.738-8.372h1.05zM34.261 262.423c-.644 0-1.213-.112-1.708-.336a2.793 2.793 0 01-1.148-.938 2.462 2.462 0 01-.448-1.344h1.036c.047.476.257.896.63 1.26.373.355.92.532 1.638.532.663 0 1.185-.168 1.568-.504a1.66 1.66 0 00.588-1.302c0-.42-.107-.756-.322-1.008a1.888 1.888 0 00-.798-.574 11.055 11.055 0 00-1.316-.42c-.653-.177-1.171-.35-1.554-.518a2.47 2.47 0 01-.98-.784c-.27-.355-.406-.835-.406-1.442 0-.504.13-.952.392-1.344a2.61 2.61 0 011.106-.938c.476-.224 1.022-.336 1.638-.336.905 0 1.633.224 2.184.672.56.439.882 1.008.966 1.708h-1.064c-.065-.401-.285-.756-.658-1.064-.373-.317-.877-.476-1.512-.476-.588 0-1.078.159-1.47.476-.392.308-.588.733-.588 1.274 0 .411.107.742.322.994.215.252.48.443.798.574.327.131.765.271 1.316.42.635.177 1.148.355 1.54.532.392.168.723.429.994.784.27.355.406.831.406 1.428 0 .457-.121.891-.364 1.302-.243.411-.602.742-1.078.994-.476.252-1.045.378-1.708.378zM35.854 172.528v7.406c0 .747-.229 1.349-.686 1.806-.458.448-1.069.672-1.834.672-.794 0-1.428-.238-1.904-.714-.467-.485-.7-1.139-.7-1.96h.994c.009.532.14.966.392 1.302.261.336.667.504 1.218.504.522 0 .91-.154 1.162-.462.252-.308.378-.691.378-1.148v-7.406h.98zM35.867 199.199v7.406c0 .746-.23 1.348-.686 1.806-.458.448-1.07.672-1.834.672-.794 0-1.428-.238-1.904-.714-.467-.486-.7-1.139-.7-1.96h.994c.009.532.14.966.392 1.302.26.336.667.504 1.218.504.522 0 .91-.154 1.162-.462.252-.308.378-.691.378-1.148v-7.406h.98z"/>
</svg>
