<svg xmlns="http://www.w3.org/2000/svg" width="28" height="24" fill="none" viewBox="0 0 28 24">
  <path stroke="#494949" stroke-linecap="round" stroke-linejoin="round" stroke-width="2" d="M24.313 4.61a6.576 6.576 0 00-2.082-1.193 7.355 7.355 0 00-2.456-.419c-.843 0-1.677.143-2.456.42a6.576 6.576 0 00-2.082 1.192L14 5.67l-1.237-1.06C11.56 3.578 9.927 2.999 8.225 2.999c-1.702 0-3.335.58-4.538 1.611-1.204 1.032-1.88 2.431-1.88 3.89s.676 2.858 1.88 3.89l1.236 1.06L14 21.23l9.077-7.78 1.236-1.06a5.528 5.528 0 001.392-1.785 4.826 4.826 0 00.489-2.105c0-.722-.166-1.438-.489-2.105a5.527 5.527 0 00-1.392-1.785v0z"/>
</svg>
