<svg xmlns="http://www.w3.org/2000/svg" width="164" height="59" fill="none" viewBox="0 0 164 59">
  <path fill="#22577A" d="M98.208 41.58c-1.91 0-3.871.203-5.985.203-1.964 0-3.117-.907-3.117-1.87 0-1.01 1.521-2.02 2.753-2.494a.237.237 0 01.146 0c.49.115.988.196 1.49.243h.686c3.488-.237 7.749-2.725 7.749-7.744a6.273 6.273 0 00-.455-2.25 4.495 4.495 0 00-.115-.244 6.311 6.311 0 00-.998-1.608 11.875 11.875 0 00-1.524-1.559 6.318 6.318 0 00-.935-.757 1.612 1.612 0 10-.617 1.287c.195.137.376.294.539.468.233.25.442.521.623.81.567 1.352.839 2.81.798 4.274 0 4.277-2.247 5.923-4.51 5.923-.222 0-.48.028-.801.028h-.574c-2.266 0-4.748-1.661-4.748-5.923-.048-1.478.22-2.949.79-4.314.18-.29.39-.56.623-.81.163-.175.343-.332.539-.468a1.609 1.609 0 10-.624-1.288 6.32 6.32 0 00-.935.758c-.555.472-1.065.993-1.524 1.558a6.335 6.335 0 00-.998 1.609c-.04.078-.078.159-.115.243a6.29 6.29 0 00-.455 2.25c0 3.277 1.82 5.49 4.052 6.697h-.04l.196.087c.112.06.23.115.346.172a.084.084 0 01-.019.087 7.169 7.169 0 01-2.085 1.406c-.602.311-1.371.826-1.484 1.49-.052.375-.03.758.066 1.125.193.533 1.09 1.328 2.204 1.764 1.611.624 5.043.624 6.156.624 2.768 0 4.48.05 5.889.854a4.16 4.16 0 012.113 3.722c0 3.523-2.618 6.643-8.304 6.643-.345 0-.69-.018-1.032-.053a.084.084 0 00-.078.034l-.04.069a3.538 3.538 0 10-.711 2.21h.043c6.593 0 12.077-5.031 12.077-9.61-.01-4.64-3.582-5.646-7.055-5.646zm-5.651 13.386a.356.356 0 01-.35.342h-.87a.36.36 0 00-.354.356v.86a.356.356 0 01-.356.355h-.583a.354.354 0 01-.355-.355v-.863a.356.356 0 00-.355-.356h-.867a.355.355 0 01-.352-.34v-.582a.356.356 0 01.352-.353h.863a.356.356 0 00.356-.355v-.892a.355.355 0 01.355-.355h.583a.357.357 0 01.359.355v.864a.357.357 0 00.355.383h.87a.355.355 0 01.355.356l-.006.58z"/>
  <path fill="#38A3A5" d="M32.735 15.805V42.63h-5.38V25.182l-7.187 17.449h-4.074L8.868 25.182v17.449h-5.38V15.805h6.11l8.533 19.946 8.532-19.946h6.072zm25.113 15.719c0 .768-.052 1.46-.154 2.075H42.129c.128 1.537.666 2.742 1.614 3.613.948.87 2.114 1.306 3.497 1.306 1.999 0 3.42-.858 4.266-2.575h5.804c-.615 2.05-1.794 3.741-3.536 5.074-1.742 1.306-3.882 1.96-6.419 1.96-2.05 0-3.894-.449-5.534-1.345-1.614-.923-2.882-2.217-3.805-3.882-.896-1.666-1.345-3.587-1.345-5.765 0-2.204.449-4.138 1.345-5.803.897-1.666 2.153-2.947 3.767-3.844 1.614-.896 3.471-1.345 5.572-1.345 2.025 0 3.831.436 5.42 1.307a9.014 9.014 0 013.727 3.728c.897 1.588 1.346 3.42 1.346 5.496zm-5.573-1.538c-.026-1.383-.525-2.485-1.499-3.305-.974-.845-2.165-1.268-3.574-1.268-1.333 0-2.46.41-3.382 1.23-.897.794-1.448 1.909-1.653 3.343h10.108zm8.117 1.922c0-2.152.422-4.061 1.268-5.727.87-1.665 2.05-2.946 3.536-3.843 1.486-.896 3.138-1.345 4.957-1.345 1.384 0 2.703.308 3.959.923 1.256.589 2.255 1.383 2.998 2.382V14.191h5.457v28.44H77.11v-3.152c-.666 1.05-1.602 1.896-2.806 2.537-1.204.64-2.6.96-4.189.96-1.794 0-3.433-.46-4.92-1.383-1.485-.922-2.664-2.216-3.535-3.882-.846-1.69-1.268-3.625-1.268-5.803zm16.756.077c0-1.307-.256-2.421-.769-3.344-.512-.948-1.204-1.665-2.075-2.152a5.441 5.441 0 00-2.805-.769c-1 0-1.922.244-2.768.73-.845.487-1.537 1.205-2.075 2.153-.512.922-.769 2.024-.769 3.305 0 1.281.257 2.408.769 3.382.538.948 1.23 1.678 2.075 2.19a5.373 5.373 0 002.768.77c.999 0 1.934-.244 2.805-.73a5.59 5.59 0 002.075-2.153c.513-.948.77-2.075.77-3.382z"/>
  <path fill="#57CC99" d="M125.931 31.524c0 .768-.051 1.46-.154 2.075h-15.565c.128 1.537.666 2.742 1.614 3.613.948.87 2.114 1.306 3.497 1.306 1.999 0 3.421-.858 4.267-2.575h5.803c-.615 2.05-1.794 3.741-3.536 5.074-1.742 1.306-3.882 1.96-6.418 1.96-2.05 0-3.895-.449-5.535-1.345-1.614-.923-2.882-2.217-3.804-3.882-.897-1.666-1.346-3.587-1.346-5.765 0-2.204.449-4.138 1.346-5.803.896-1.666 2.152-2.947 3.766-3.844 1.614-.896 3.472-1.345 5.573-1.345 2.024 0 3.83.436 5.419 1.307a9.015 9.015 0 013.728 3.728c.897 1.588 1.345 3.42 1.345 5.496zm-5.573-1.538c-.025-1.383-.525-2.485-1.499-3.305-.973-.845-2.165-1.268-3.574-1.268-1.332 0-2.46.41-3.382 1.23-.897.794-1.448 1.909-1.653 3.343h10.108zm17.648 12.99c-1.742 0-3.305-.307-4.689-.922-1.383-.64-2.485-1.499-3.305-2.575a6.556 6.556 0 01-1.307-3.574h5.419c.103.82.5 1.499 1.192 2.037.717.538 1.601.807 2.652.807 1.025 0 1.819-.205 2.382-.615.59-.41.884-.935.884-1.576 0-.691-.358-1.204-1.076-1.537-.691-.359-1.806-.743-3.343-1.153-1.589-.384-2.896-.781-3.921-1.191a6.969 6.969 0 01-2.613-1.883c-.717-.846-1.076-1.986-1.076-3.421 0-1.179.333-2.255.999-3.228.692-.974 1.666-1.743 2.921-2.306 1.281-.564 2.78-.846 4.497-.846 2.536 0 4.56.64 6.072 1.922 1.512 1.255 2.345 2.96 2.498 5.111h-5.15c-.077-.845-.435-1.511-1.076-1.998-.615-.513-1.448-.769-2.498-.769-.974 0-1.729.18-2.268.538-.512.359-.768.858-.768 1.5 0 .716.359 1.267 1.076 1.652.717.358 1.832.73 3.344 1.114 1.537.385 2.805.782 3.804 1.192 1 .41 1.858 1.05 2.575 1.921.743.846 1.128 1.973 1.153 3.382 0 1.23-.345 2.332-1.037 3.306-.666.973-1.64 1.742-2.921 2.306-1.256.538-2.729.807-4.42.807zm19.06-17.217v10.3c0 .717.166 1.242.499 1.576.359.307.948.46 1.768.46h2.498v4.536h-3.382c-4.535 0-6.802-2.204-6.802-6.61V25.758h-2.537v-4.42h2.537v-5.265h5.419v5.265h4.765v4.42h-4.765z"/>
</svg>
